<svg width="28" height="18" viewBox="0 0 28 18" fill="none" xmlns="http://www.w3.org/2000/svg">
<path fill-rule="evenodd" clip-rule="evenodd" d="M0.505936 8.99994C0.505936 8.74432 0.607479 8.49917 0.788231 8.31842C0.968983 8.13767 1.21413 8.03612 1.46976 8.03612H24.2024L18.1361 1.97176C18.0465 1.88215 17.9754 1.77577 17.9269 1.65868C17.8784 1.5416 17.8535 1.41611 17.8535 1.28938C17.8535 1.16265 17.8784 1.03716 17.9269 0.920075C17.9754 0.802991 18.0465 0.696606 18.1361 0.606994C18.2257 0.517382 18.3321 0.446298 18.4492 0.3978C18.5663 0.349302 18.6918 0.324341 18.8185 0.324341C18.9453 0.324341 19.0707 0.349302 19.1878 0.3978C19.3049 0.446298 19.4113 0.517382 19.5009 0.606994L27.2115 8.31756C27.3012 8.40709 27.3724 8.51345 27.421 8.63054C27.4696 8.74764 27.4946 8.87317 27.4946 8.99994C27.4946 9.12672 27.4696 9.25225 27.421 9.36934C27.3724 9.48644 27.3012 9.5928 27.2115 9.68233L19.5009 17.3929C19.4113 17.4825 19.3049 17.5536 19.1878 17.6021C19.0707 17.6506 18.9453 17.6755 18.8185 17.6755C18.6918 17.6755 18.5663 17.6506 18.4492 17.6021C18.3321 17.5536 18.2257 17.4825 18.1361 17.3929C18.0465 17.3033 17.9754 17.1969 17.9269 17.0798C17.8784 16.9627 17.8535 16.8372 17.8535 16.7105C17.8535 16.5838 17.8784 16.4583 17.9269 16.3412C17.9754 16.2241 18.0465 16.1177 18.1361 16.0281L24.2024 9.96376H1.46976C1.21413 9.96376 0.968983 9.86222 0.788231 9.68147C0.607479 9.50072 0.505936 9.25556 0.505936 8.99994Z" fill="black"/>
</svg>
